{"title":"Vice(2015)MPEG-4[DaScubaDude]","uid":13713518,"size":961711178,"categoryP":"video","categoryS":"movies","magnet":"?xt=urn:btih:b58191943b95c47ee2a4e74429871411beac5801&amp;dn=Vice%282015%29MPEG-4%5BDaScubaDude%5D&amp;tr=udp%3A%2F%2Ftracker.leechers-paradise.org%3A6969&amp;tr=udp%3A%2F%2Fzer0day.ch%3A1337&amp;tr=udp%3A%2F%2Fopen.demonii.com%3A1337&amp;tr=udp%3A%2F%2Ftracker.coppersurfer.tk%3A6969&amp;tr=udp%3A%2F%2Fexodus.desync.com%3A6969","seeders":0,"leechers":0,"uploader":"dascuba","files":1,"time":1456886308,"description":"Vice (2015)\r\nR | 1h 36min | Action, Adventure, Sci-Fi | 16 January 2015 (USA)\r\nBruce Willis stars in this Sci-Fi thriller about ultimate resort: VICE, where customers can play out their wildest fantasies with artificial inhabitants who look like humans.\r\nDirector: Brian A Miller\r\nWriters: Andre Fabrizio, Jeremy Passmore\r\nStars: Thomas Jane, Bruce Willis, Ambyr Childers\r\n\r\nGeneral\r\nComplete name                            : ViceVice_Title1.mp4\r\nFormat                                   : MPEG-4\r\nFormat profile                           : Base Media\r\nCodec ID                                 : isom\r\nFile size                                : 917 MiB\r\nDuration                                 : 1h 36mn\r\nOverall bit rate                         : 1 332 Kbps\r\nMovie name                               : Vice\r\nGenre                                    : Science_Fiction\r\nWriting application                      : Lavf54.6.100\r\n\r\nVideo\r\nID                                       : 1\r\nFormat                                   : AVC\r\nFormat/Info                              : Advanced Video Codec\r\nFormat profile                           :   \r\nFormat settings, CABAC                   : No\r\nFormat settings, ReFrames                : 6 frames\r\nCodec ID                                 : avc1\r\nCodec ID/Info                            : Advanced Video Coding\r\nDuration                                 : 1h 36mn\r\nBit rate                                 : 1 197 Kbps\r\nWidth                                    : 720 pixels\r\nHeight                                   : 404 pixels\r\nDisplay aspect ratio                     : 16:9\r\nFrame rate mode                          : Constant\r\nFrame rate                               : 29.970 fps\r\nColor space                              : YUV\r\nChroma subsampling                       : 4:2:0\r\nBit depth                                : 8 bits\r\nScan type                                : Progressive\r\nBits/(Pixel*Frame)                       : 0.137\r\nStream size                              : 824 MiB (90%)\r\n\r\nAudio\r\nID                                       : 2\r\nFormat                                   : AAC\r\nFormat/Info                              : Advanced Audio Codec\r\nFormat profile                           : LC\r\nCodec ID                                 : 40\r\nDuration                                 : 1h 36mn\r\nBit rate mode                            : Constant\r\nBit rate                                 : 128 Kbps\r\nChannel(s)                               : 2 channels\r\nChannel positions                        : Front: L R\r\nSampling rate                            : 44.1 KHz\r\nCompression mode                         : Lossy\r\nStream size                              : 88.1 MiB (10%)","torrent":{"xt":"urn:btih:b58191943b95c47ee2a4e74429871411beac5801","amp;dn":"Vice%282015%29MPEG-4%5BDaScubaDude%5D","amp;tr":["udp%3A%2F%2Ftracker.leechers-paradise.org%3A6969","udp%3A%2F%2Fzer0day.ch%3A1337","udp%3A%2F%2Fopen.demonii.com%3A1337","udp%3A%2F%2Ftracker.coppersurfer.tk%3A6969","udp%3A%2F%2Fexodus.desync.com%3A6969"],"infoHash":"b58191943b95c47ee2a4e74429871411beac5801","infoHashBuffer":{"type":"Buffer","data":[181,129,145,148,59,149,196,126,226,164,231,68,41,135,20,17,190,172,88,1]},"announce":[],"urlList":[]}}